<svg xmlns="http://www.w3.org/2000/svg" xmlns:xlink="http://www.w3.org/1999/xlink" viewBox="0 0 947.91 941.33"><defs><style>.cls-1,.cls-3,.cls-4,.cls-8,.cls-9{fill:none;}.cls-2{clip-path:url(#clip-path);}.cls-3,.cls-9{stroke:#006837;}.cls-3,.cls-4,.cls-6,.cls-7,.cls-8,.cls-9{stroke-miterlimit:10;}.cls-3,.cls-4{stroke-width:28.35px;}.cls-4,.cls-7,.cls-8{stroke:#000;}.cls-11,.cls-12,.cls-5,.cls-6{fill:#006837;}.cls-6{stroke:#006830;}.cls-6,.cls-7{stroke-width:2.83px;}.cls-8,.cls-9{stroke-width:11.34px;}.cls-10{font-size:142.88px;font-family:CambriaMath, Cambria Math;}.cls-11{letter-spacing:-0.02em;}.cls-12{letter-spacing:0em;}.cls-13{letter-spacing:0em;}.cls-14{letter-spacing:-0.01em;}.cls-15{letter-spacing:-0.02em;}.cls-16{fill:#fff;}</style><clipPath id="clip-path" transform="translate(-195.23 -71.17)"><rect class="cls-1" width="1280" height="697"/></clipPath></defs><title>Asset 4</title><g id="Layer_2" data-name="Layer 2"><g id="Layer_1-2" data-name="Layer 1"><g class="cls-2"><path class="cls-3" d="M676.15,124.1c233.57,0,422.57,186.65,422.57,417.32" transform="translate(-195.23 -71.17)"/><line class="cls-3" x1="486.18" y1="455.44" x2="903.49" y2="455.44"/><line class="cls-4" x1="68.87" y1="455.44" x2="486.18" y2="455.44"/><path class="cls-4" d="M254.75,541.42c0-230.67,188.74-417.32,422-417.32" transform="translate(-195.23 -71.17)"/><path class="cls-5" d="M688.32,227.49c-11.94,3.41,40.67-50.92,27-77.12-5.53-10.58-17.82-12.34-17-15C700.39,128,824.86,145,803,162.16,745.7,207.1,727,216.45,688.32,227.49Z" transform="translate(-195.23 -71.17)"/><path class="cls-5" d="M845.55,279.2c-12.23-2.17,58.86-28,58-57.53-.34-11.93-10.62-18.9-8.77-20.93,5.15-5.67,109.65,64,82.42,69.91C906.07,286,885.16,286.2,845.55,279.2Z" transform="translate(-195.23 -71.17)"/><path class="cls-5" d="M955.28,393.39c-9.55-7.94,65,4.84,78.89-21.24,5.62-10.54.13-21.68,2.75-22.53,7.28-2.37,63.54,109.94,37,101.56C1004.49,429.26,986.22,419.09,955.28,393.39Z" transform="translate(-195.23 -71.17)"/><path d="M361.78,480.21c1.39,12.34-43.53-48.5-71.62-39.32-11.35,3.72-15.11,15.55-17.59,14.35-6.9-3.33,30.31-123.31,43.67-98.86C351.12,420.25,357.26,440.24,361.78,480.21Z" transform="translate(-195.23 -71.17)"/><path d="M441.77,329.43c-4.15,11.71-17.89-62.66-47.17-66.71-11.83-1.63-20.39,7.36-22.09,5.2-4.74-6,81.25-97.59,82.54-69.76C458.45,270.86,455.21,291.52,441.77,329.43Z" transform="translate(-195.23 -71.17)"/><path d="M572.49,240c-9.4,8.11,15.5-63.3-7.94-81.32-9.46-7.27-21.35-3.7-21.76-6.42-1.15-7.58,118.91-44.54,106.26-19.72C616,197.42,603,213.76,572.49,240Z" transform="translate(-195.23 -71.17)"/><rect x="294.98" y="226.41" width="16.99" height="70.14" transform="translate(-279.36 291.44) rotate(-55.37)"/><rect x="274.33" y="296.33" width="45.59" height="25.72" transform="translate(-321.37 306.82) rotate(-55.37)"/><rect x="603.97" y="88.26" width="45.59" height="25.72" transform="translate(-202.16 -8.76) rotate(-5.67)"/><rect x="220.76" y="355.03" width="22.38" height="70.14" transform="translate(-411.54 389.97) rotate(-68.27)"/><rect x="238.81" y="362.57" width="45.59" height="25.72" transform="translate(-379.23 408.28) rotate(-68.27)"/><rect x="394.83" y="148.11" width="33.9" height="47.93" transform="translate(-224.15 171.34) rotate(-31.76)"/><rect x="399.26" y="77.41" width="31.56" height="111.05" transform="translate(-203.06 167.19) rotate(-31.76)"/><rect x="490.73" y="124.08" width="22.21" height="22.21" transform="translate(-211.63 103.3) rotate(-19.41)"/><rect x="501.02" y="88.57" width="59.62" height="46.76" transform="translate(-202.26 111.62) rotate(-19.41)"/><rect x="238.81" y="419.66" width="22.21" height="22.21" transform="translate(530.39 212.23) rotate(102.91)"/><rect x="200.31" y="438.83" width="59.62" height="46.76" transform="translate(536.82 269.99) rotate(102.91)"/><rect x="359.97" y="197.33" width="18.3" height="34.37" transform="translate(-237.29 258.25) rotate(-45.78)"/><rect x="329.93" y="227" width="44.42" height="24.08" transform="translate(-260 253.5) rotate(-45.78)"/><circle class="cls-5" cx="569.94" cy="27.52" r="8.68"/><ellipse class="cls-5" cx="592.69" cy="8.91" rx="11.55" ry="8.58"/><circle class="cls-5" cx="604.23" cy="31.54" r="13.28"/><circle class="cls-5" cx="596.05" cy="18.69" r="13.28"/><ellipse class="cls-5" cx="782.19" cy="89.86" rx="15.32" ry="19.92" transform="translate(306.03 754.2) rotate(-75.65)"/><rect class="cls-5" x="774.04" y="93.13" width="12.26" height="38.81" rx="5.24" ry="5.24" transform="translate(-142.99 -261.03) rotate(14.35)"/><ellipse class="cls-5" cx="923.54" cy="158.47" rx="7.7" ry="11.74" transform="translate(-16.98 655.26) rotate(-47.05)"/><ellipse class="cls-5" cx="946.25" cy="174.12" rx="8.58" ry="11.55" transform="matrix(0.38, -0.92, 0.92, 0.38, 227.81, 910.38)"/><ellipse class="cls-5" cx="931.46" cy="152.85" rx="7.09" ry="9.65" transform="translate(-121.41 475.95) rotate(-34.01)"/><ellipse class="cls-5" cx="943.68" cy="155.54" rx="9.94" ry="12.86" transform="translate(243.39 896.55) rotate(-67.48)"/><ellipse class="cls-5" cx="940.37" cy="160.11" rx="9.83" ry="21.64" transform="matrix(0.13, -0.99, 0.99, 0.13, 462.89, 1000.12)"/><rect class="cls-5" x="921.93" y="156.99" width="12.26" height="38.81" rx="5.24" ry="5.24" transform="translate(96.19 -592.7) rotate(36.87)"/><ellipse class="cls-5" cx="1034.82" cy="268.95" rx="6.59" ry="6.68" transform="translate(-203.61 432.16) rotate(-27.23)"/><ellipse class="cls-5" cx="1056.91" cy="272.65" rx="6.51" ry="8.88" transform="translate(-115.31 688.2) rotate(-40.95)"/><ellipse class="cls-5" cx="1049.97" cy="290.75" rx="10.07" ry="10.21" transform="translate(-211.9 441.51) rotate(-27.23)"/><ellipse class="cls-5" cx="1053.09" cy="279.53" rx="10.07" ry="10.21" transform="translate(-206.42 441.69) rotate(-27.23)"/><ellipse class="cls-5" cx="1048.47" cy="274.3" rx="11.62" ry="15.32" transform="translate(-204.54 439) rotate(-27.23)"/><rect class="cls-5" x="1029.89" y="269.88" width="9.43" height="29.44" rx="4.03" ry="4.03" transform="translate(619 -836.73) rotate(62.77)"/><ellipse class="cls-5" cx="1121" cy="469.58" rx="6.59" ry="6.68" transform="translate(-255.35 111.86) rotate(-9.09)"/><ellipse class="cls-5" cx="1136.61" cy="453.51" rx="8.88" ry="6.51" transform="translate(397.72 1478.69) rotate(-85.38)"/><ellipse class="cls-5" cx="1120.29" cy="443.05" rx="10.07" ry="10.21" transform="translate(-251.17 111.42) rotate(-9.09)"/><ellipse class="cls-5" cx="1129.45" cy="450.24" rx="10.07" ry="10.21" transform="translate(-252.19 112.96) rotate(-9.09)"/><ellipse class="cls-5" cx="1128.83" cy="457.19" rx="11.62" ry="15.32" transform="translate(-253.29 112.95) rotate(-9.09)"/><rect class="cls-5" x="1106.84" y="442.39" width="9.43" height="29.44" rx="4.03" ry="4.03" transform="translate(640.6 1555.76) rotate(-99.09)"/><rect class="cls-5" x="971.13" y="216.65" width="31.56" height="18.7" transform="translate(272.45 -714.35) rotate(46.25)"/><polygon class="cls-5" points="779.87 130.67 816.1 131.46 815.31 167.68 779.87 130.67"/><rect class="cls-5" x="1055.3" y="354.94" width="55.02" height="18.7" transform="translate(804.86 -846.33) rotate(67.25)"/><polygon class="cls-5" points="877.85 248.76 918.75 280.05 912.39 331.15 877.85 248.76"/><rect class="cls-5" x="830.04" y="129.76" width="31.56" height="18.7" transform="matrix(0.94, 0.35, -0.35, 0.94, -93.42, -357.76)"/><polygon class="cls-5" points="629.44 51.33 662.39 36.26 677.46 69.22 629.44 51.33"/><path class="cls-6" d="M682.66,513.5l-1.17-94.88v.61c43.29,0,78.32,41.34,78.32,92.42l.58.62H682.07" transform="translate(-195.23 -71.17)"/><path class="cls-7" d="M680.13,513.15l.38-94.89v.61c-43.29.4-78,42.06-77.55,93.14l-.58.62,78.32-.72" transform="translate(-195.23 -71.17)"/><line class="cls-8" x1="146.77" y1="233.83" x2="418.96" y2="390.17"/><line class="cls-8" x1="303.24" y1="104.95" x2="442.77" y2="368.83"/><line class="cls-8" x1="76.47" y1="420.56" x2="414.77" y2="421.83"/><line class="cls-9" x1="659.77" y1="102.83" x2="512.48" y2="352.77"/><line class="cls-9" x1="816.4" y1="238.21" x2="546.38" y2="385.5"/><line class="cls-9" x1="890.77" y1="414.83" x2="561.58" y2="419.39"/><line class="cls-9" x1="483.26" y1="67.55" x2="487.93" y2="346.92"/><text class="cls-10" transform="translate(59.52 589.3) scale(1.58 1)"><tspan class="cls-11">R</tspan><tspan class="cls-12" x="86.16" y="0">e</tspan><tspan class="cls-13" x="155.85" y="0">-</tspan><tspan class="cls-14" x="203.29" y="0">C</tspan><tspan class="cls-15" x="281.57" y="0">y</tspan><tspan x="350.77" y="0">cle</tspan></text><path class="cls-16" d="M560.55,71.47l-.2.13.27-.18Z" transform="translate(-195.23 -71.17)"/><path class="cls-16" d="M560,71.81l.62-.41-.47.31.19-.13-.11.08c-.22.14-.22.15,0,0Z" transform="translate(-195.23 -71.17)"/><path class="cls-16" d="M559.66,72.17l0,0Z" transform="translate(-195.23 -71.17)"/><path class="cls-16" d="M559.54,72.32l-.06,0Z" transform="translate(-195.23 -71.17)"/><path class="cls-16" d="M559.24,72.53l0,0Z" transform="translate(-195.23 -71.17)"/><path class="cls-16" d="M559.66,72.17l-.09.06Z" transform="translate(-195.23 -71.17)"/><path class="cls-16" d="M560.71,71.38l-.07.05,0,0Z" transform="translate(-195.23 -71.17)"/><path class="cls-16" d="M559.42,72.3h0l-.11.07Z" transform="translate(-195.23 -71.17)"/><path class="cls-16" d="M559.37,72.31l.33-.21-.17.1Z" transform="translate(-195.23 -71.17)"/><path class="cls-16" d="M559.76,72l0,0Z" transform="translate(-195.23 -71.17)"/><path class="cls-16" d="M559.38,72.34l-.09.06Z" transform="translate(-195.23 -71.17)"/><path class="cls-16" d="M561.41,71.59l0,0Z" transform="translate(-195.23 -71.17)"/><path class="cls-16" d="M560.27,72.38h0l-.13.08Z" transform="translate(-195.23 -71.17)"/><path class="cls-16" d="M559,72.74Z" transform="translate(-195.23 -71.17)"/><path class="cls-16" d="M559.2,72.75l.5-.33Z" transform="translate(-195.23 -71.17)"/><path class="cls-16" d="M560.68,71.4Z" transform="translate(-195.23 -71.17)"/><path class="cls-16" d="M559.7,72.42h0l0,0Z" transform="translate(-195.23 -71.17)"/><path class="cls-16" d="M559.11,72.68l.1-.07Z" transform="translate(-195.23 -71.17)"/><path class="cls-16" d="M559.43,72.43l0,0Z" transform="translate(-195.23 -71.17)"/><path class="cls-16" d="M559.45,72.47h0l0,0S559.41,72.49,559.45,72.47Z" transform="translate(-195.23 -71.17)"/><path class="cls-16" d="M559.46,72.48l0,0h0Z" transform="translate(-195.23 -71.17)"/><path class="cls-16" d="M561.27,71.63l-.21.14Z" transform="translate(-195.23 -71.17)"/><path class="cls-16" d="M560.58,71.47l.1-.07h0Z" transform="translate(-195.23 -71.17)"/><path class="cls-16" d="M561.29,71.24l0,0Z" transform="translate(-195.23 -71.17)"/><path class="cls-16" d="M561.18,71.56l0,0S561.21,71.54,561.18,71.56Z" transform="translate(-195.23 -71.17)"/><path class="cls-16" d="M561.3,71.25l-.16.11.06,0Z" transform="translate(-195.23 -71.17)"/><path class="cls-16" d="M561.06,71.77Z" transform="translate(-195.23 -71.17)"/><path class="cls-16" d="M561.63,71.41l-.48.32c-.09,0,.22-.15.38-.26l-.35.23.13-.09-.32.21.07,0-.42.28s-.19.13,0,0l.13-.09-.08.06.31-.21-.25.16.34-.23-.1.08.44-.3-.06,0-.39.26c-.29.18.71-.48.33-.23l-.36.23.32-.21-.25.16.15-.1c.25-.17-.19.12-.19.12l.29-.19-.31.19.26-.17c-.14.09,0,0,.19-.15l-.24.16.16-.1-.26.17.22-.15-.19.12.07,0-.28.18.05,0c.1-.08-.13.07.24-.18-.35.23.15-.11-.34.21l.49-.33-.36.23.26-.17-.27.18.31-.2-.07,0-.19.12.31-.21-.22.14.2-.13,0,0-.2.13c.15-.1.15-.1.08-.06l.18-.12s-.09,0-.09,0l-.42.28.28-.18-.31.21.39-.27-.09.06.23-.15c-.17.11.27-.18,0,0l.08,0s-.09,0-.11.06l-.37.24.24-.16-.34.22.34-.23-.22.14-.2.13.19-.13,0,0c-.33.21.61-.42.16-.13h0l-.24.15.3-.2c-.36.24,0,0-.2.12.63-.42,0,0,.35-.25l-.15.1.12-.08-.21.14c-.18.11.2-.16.33-.26l-.41.27.27-.18c-.33.21,0,0-.28.16l.15-.09c.2-.14,0,0-.16.09l.23-.15c.12-.08-.25.17-.06,0l.08,0-.2.13,0,0c-.26.17.12-.09-.25.15.38-.25.31-.2.13-.09l.27-.18-.27.18c.45-.31-.36.23.21-.15l-.43.27.43-.29c-.16.1-.48.32-.39.25l.23-.15c-.16.1,0,0-.18.11l.1-.07s0,0-.12.07l0,0-.65.43.74-.49-.23.15.23-.16-.27.18.21-.14-.25.16.11-.07s-.43.28-.28.17l.43-.28-.09.06-.16.1s-.22.14-.12.07l.13-.08-.06,0-.12.08-.3.21.18-.13h0l-.13.08.41-.27-.35.23.26-.18-.21.14.23-.15s-.39.26-.22.14l.08,0c.08-.06-.14.09,0,0l.34-.22-.3.19,0,0c-.44.3.22-.15,0,0l.19-.13-.25.16.12-.08a.62.62,0,0,0,.1-.08l-.26.18c.64-.44-.35.22.18-.14l.1-.07-.1.07-.27.17-.2.14.41-.28-.18.12c.34-.23-.39.26-.16.1l.1-.06-.15.1.28-.19-.2.13.13-.08.23-.16h0l.12-.08-.07,0c-.58.38-.11.06-.49.31l.46-.3.22-.15-.14.09.21-.14-.24.16c-.28.18.33-.23-.05,0l-.57.37.29-.2c.12-.08.1-.06,0,0l.22-.15s-.3.2-.18.11l.33-.21-.3.19.3-.2-.35.23-.08.06.23-.16c.18-.12-.07,0-.15.11l-.06,0c-.47.32.08,0,0,0l-.34.23.29-.18-.34.22c-.17.11.13-.08-.06,0l-.07,0,.11-.07-.2.13c-.19.13.27-.17,0,0l0,0,.56-.37-.63.42.26-.17-.13.09.27-.18-.29.2.28-.19c-.43.29.08-.05-.12.09l-.31.2c.38-.25-.08.06,0,0,.31-.2.13-.08.23-.14-.1.06-.16.11-.27.19l0,0,.32-.2-.34.22h0l.19-.12-.23.15s.27-.17.12-.07l.73-.49-.36.24,0,0-.19.13c-.09,0,.16-.11.14-.1l-.25.17s.07-.05,0,0l-.25.17.24-.16-.28.19.24-.16a1.78,1.78,0,0,1-.18.13l.3-.19v0h0c.25-.16-.13.1,0,0l-.09,0,.24-.15-.25.17c.06,0,.16-.1,0,0l-.1.07c-.07,0-.2.14,0,0l-.2.14.15-.11s0,0,0,0l-.28.19c-.33.22.58-.38,0,0l.36-.24-.44.29.31-.2.45-.3-.49.33.06,0-.19.13.1-.07-.25.17.21-.14c-.14.1,0,0-.09.07l.16-.11.24-.15c-.15.1-.36.24-.23.16l-.35.22c.19-.12-.12.09-.15.12l-.08,0,0,0,.2-.13-.12.08.51-.34c-.1.07.11-.07-.15.11.08-.07-.27.17-.31.2h0l-.07,0,.29-.19-.25.17s.25-.17.36-.24l.08,0,.05,0,.18-.11-.13.09c.26-.18-.27.18-.1.06l-.34.23c.19-.12-.2.14,0,0l.34-.23-.14.09.29-.19-.09.06.28-.19c-.3.2.17-.11,0,0l-.49.32c-.22.15.25-.16.13-.07l.09-.06.11-.07-.33.22.32-.21-.22.15.42-.27c-.18.11-.29.19-.42.28l.08-.06c-.1.07.22-.14.07,0l.23-.15-.08,0,.29-.19-.4.28a.42.42,0,0,1,.13-.07l-.07,0c-.15.1.48-.32.31-.2l-.25.16c-.54.36.08,0-.24.17l0,0c-.18.12.21-.13.17-.1l-.08,0,.45-.29c-.21.14-.12.07-.33.22l.41-.27-.45.3h0c-.3.19,0,0,0,0l-.13.08.35-.22.1-.07c.32-.21-.18.13.06,0l-.33.22.38-.25-.51.34.18-.12-.06,0a2.66,2.66,0,0,1,.39-.25c-.64.42-.16.11-.65.44.23-.15-.1.08-.06.06.49-.34,0,0,.52-.35,0,0,0,0,0,0l-.31.2-.22.15-.35.24.19-.13.23-.16c.28-.17-.42.29-.15.12l-.16.1c.09-.06,0,0,.41-.26l-.24.15c-.05,0,.44-.28.19-.11l-.12.09.11-.07-.13.08.15-.09-.14.09.43-.27-.54.36L559,73l.46-.29c-.4.27-.16.12-.38.27l.32-.21c-.07,0,.26-.17-.08.06h0l-.25.17.44-.29c-.64.43.24-.14-.33.24l.22-.14-.24.15s-.08.07,0,0l-.17.12.69-.46-.35.23s-.3.21,0,0l-.16.11s-.24.17.24-.15c-.31.2,0,0,.12-.07l-.24.15.46-.3-.12.08c-.12.09.22-.14.1-.06l-.15.1.23-.15-.26.18.24-.16-.15.1c-.16.11.27-.17,0,0l-.14.1,0,0-.55.36.41-.27-.07,0,0,0,0,0-.06,0-.1.07.39-.26,0,0h0l.09-.06.38-.25-.71.48.54-.35-.2.13-.1.07a3.8,3.8,0,0,0,.35-.23l-.23.16-.09.06c-.49.33.79-.51.16-.09l.11-.07c-.27.19.27-.16-.17.14l.26-.17-.25.17.29-.19c.22-.14-.61.41-.21.15l.17-.11-.09.06s.18-.11.09,0l-.13.08.22-.14c-.09.06-.52.34-.54.37l.47-.32.21-.14.07,0,1.06-.71-.24.16.19-.13h0c.18-.12,0,0-.09.05l.21-.14-.37.25.38-.26-.45.3c.17-.12.32-.21.16-.11l.21-.14-.26.17c.22-.15-.06,0,.31-.21l-.3.2c.44-.29,0,0,.49-.34l-.4.26.08,0,.22-.15-.6.39.68-.45-.48.32.36-.25-.32.21.26-.17Zm-.74.43h0Zm0,0h0l-.16.11Zm-1.62,1.09.06,0,0,0,0,0Z" transform="translate(-195.23 -71.17)"/><path class="cls-16" d="M559.58,72.72h0l.06,0-.08,0Z" transform="translate(-195.23 -71.17)"/><path class="cls-16" d="M559.7,72.15h0l0,0Z" transform="translate(-195.23 -71.17)"/><polygon class="cls-16" points="366.07 0.31 366.01 0.35 366.06 0.32 366.07 0.31"/><path class="cls-16" d="M560.48,71.59l.06,0Z" transform="translate(-195.23 -71.17)"/><path class="cls-16" d="M560.53,71.55l.08-.06Z" transform="translate(-195.23 -71.17)"/><path class="cls-16" d="M560.64,71.46l-.1.07h0Z" transform="translate(-195.23 -71.17)"/><path class="cls-16" d="M561,71.39h0S561,71.36,561,71.39Z" transform="translate(-195.23 -71.17)"/><path class="cls-16" d="M560.42,71.72l.11-.07Z" transform="translate(-195.23 -71.17)"/><polygon class="cls-16" points="366.06 0.07 366.06 0.07 366.06 0.07 366.06 0.07"/><path class="cls-16" d="M560.53,71.65Z" transform="translate(-195.23 -71.17)"/><path class="cls-16" d="M560.73,71.36h0l0,0Z" transform="translate(-195.23 -71.17)"/><path class="cls-16" d="M560.7,71.38l0,0Z" transform="translate(-195.23 -71.17)"/><path class="cls-16" d="M560.61,71.44l.06,0Z" transform="translate(-195.23 -71.17)"/><path class="cls-16" d="M560.63,71.44l.08,0Z" transform="translate(-195.23 -71.17)"/><path class="cls-16" d="M560.65,71.43l.13-.09-.07,0Z" transform="translate(-195.23 -71.17)"/><path class="cls-16" d="M559.61,72.14l.07,0-.24.16C559.18,72.43,559.65,72.11,559.61,72.14Z" transform="translate(-195.23 -71.17)"/><path class="cls-16" d="M559.49,72.23l-.19.12Z" transform="translate(-195.23 -71.17)"/><path class="cls-16" d="M559.52,72.29l-.21.14Z" transform="translate(-195.23 -71.17)"/><polygon class="cls-16" points="365.39 0.39 365.53 0.3 365.33 0.43 365.39 0.39"/><polygon class="cls-16" points="363.88 1.41 363.85 1.43 363.93 1.38 363.88 1.41"/><path class="cls-16" d="M559.25,72.62l.26-.18Z" transform="translate(-195.23 -71.17)"/><path class="cls-16" d="M559.54,72.48c-.13.08-.21.14-.08.06S559.57,72.45,559.54,72.48Z" transform="translate(-195.23 -71.17)"/><polygon class="cls-16" points="363.96 1.7 363.87 1.76 363.94 1.71 363.96 1.7"/></g></g></g></svg>