<?xml version="1.0" encoding="utf-8"?>
<!-- Generator: Adobe Illustrator 22.1.0, SVG Export Plug-In . SVG Version: 6.00 Build 0)  -->
<svg version="1.1" id="Layer_1" xmlns="http://www.w3.org/2000/svg" xmlns:xlink="http://www.w3.org/1999/xlink" x="0px" y="0px"
	 viewBox="0 0 1111 711" style="enable-background:new 0 0 1111 711;" xml:space="preserve">
<style type="text/css">
	.st0{clip-path:url(#SVGID_2_);}
	.st1{fill:none;stroke:#006837;stroke-width:28.3465;stroke-miterlimit:10;}
	.st2{fill:none;stroke:#000000;stroke-width:28.3465;stroke-miterlimit:10;}
	.st3{fill:#006837;}
	.st4{fill:#006837;stroke:#006830;stroke-width:2.8346;stroke-miterlimit:10;}
	.st5{stroke:#000000;stroke-width:2.8346;stroke-miterlimit:10;}
	.st6{fill:none;stroke:#000000;stroke-width:11.3386;stroke-miterlimit:10;}
	.st7{fill:none;stroke:#006837;stroke-width:11.3386;stroke-miterlimit:10;}
	.st8{font-family:'CambriaMath';}
	.st9{font-size:142.877px;}
	.st10{fill:#FFFFFF;}
</style>
<g>
	<defs>
		<rect id="SVGID_1_" x="-119.5" y="-0.5" width="1280" height="697"/>
	</defs>
	<clipPath id="SVGID_2_">
		<use xlink:href="#SVGID_1_"  style="overflow:visible;"/>
	</clipPath>
	<g class="st0">
		<path class="st1" d="M556.7,123.6c233.6,0,422.6,186.6,422.6,417.3"/>
		<line class="st1" x1="561.9" y1="526.1" x2="979.2" y2="526.1"/>
		<line class="st2" x1="144.6" y1="526.1" x2="561.9" y2="526.1"/>
		<path class="st2" d="M135.2,540.9c0-230.7,188.7-417.3,422-417.3"/>
		<path class="st3" d="M568.8,227c-11.9,3.4,40.7-50.9,27-77.1c-5.5-10.6-17.8-12.3-17-15c2.1-7.4,126.6,9.6,104.7,26.8
			C626.2,206.6,607.5,216,568.8,227z"/>
		<path class="st3" d="M726.1,278.7c-12.2-2.2,58.9-28,58-57.5c-0.3-11.9-10.6-18.9-8.8-20.9c5.1-5.7,109.6,64,82.4,69.9
			C786.6,285.5,765.7,285.7,726.1,278.7z"/>
		<path class="st3" d="M835.8,392.9c-9.6-7.9,65,4.8,78.9-21.2c5.6-10.5,0.1-21.7,2.8-22.5c7.3-2.4,63.5,109.9,37,101.6
			C885,428.8,866.7,418.6,835.8,392.9z"/>
		<path d="M242.3,479.7c1.4,12.3-43.5-48.5-71.6-39.3c-11.3,3.7-15.1,15.5-17.6,14.3c-6.9-3.3,30.3-123.3,43.7-98.9
			C231.6,419.8,237.8,439.7,242.3,479.7z"/>
		<path d="M322.3,328.9c-4.2,11.7-17.9-62.7-47.2-66.7c-11.8-1.6-20.4,7.4-22.1,5.2c-4.7-6,81.2-97.6,82.5-69.8
			C338.9,270.4,335.7,291,322.3,328.9z"/>
		<path d="M453,239.5c-9.4,8.1,15.5-63.3-7.9-81.3c-9.5-7.3-21.4-3.7-21.8-6.4c-1.1-7.6,118.9-44.5,106.3-19.7
			C496.5,196.9,483.4,213.3,453,239.5z"/>
		<rect x="175.5" y="225.9" transform="matrix(0.5682 -0.8229 0.8229 0.5682 -135.3124 264.0656)" width="17" height="70.1"/>
		<rect x="154.8" y="295.8" transform="matrix(0.5682 -0.8229 0.8229 0.5682 -177.3161 279.4387)" width="45.6" height="25.7"/>
		
			<rect x="484.5" y="87.8" transform="matrix(0.9951 -9.878907e-02 9.878907e-02 0.9951 -7.4585 50.6046)" width="45.6" height="25.7"/>
		<rect x="101.3" y="354.5" transform="matrix(0.3702 -0.9289 0.9289 0.3702 -291.0994 349.817)" width="22.4" height="70.1"/>
		<rect x="119.3" y="362.1" transform="matrix(0.3702 -0.9289 0.9289 0.3702 -258.7862 368.1236)" width="45.6" height="25.7"/>
		<g>
			<rect x="275.3" y="147.6" transform="matrix(0.8503 -0.5264 0.5264 0.8503 -46.5461 179.5334)" width="33.9" height="47.9"/>
			<rect x="279.8" y="76.9" transform="matrix(0.8503 -0.5264 0.5264 0.8503 -25.455 175.3915)" width="31.6" height="111"/>
		</g>
		<g>
			<rect x="371.2" y="123.6" transform="matrix(0.9432 -0.3324 0.3324 0.9432 -23.0276 134.726)" width="22.2" height="22.2"/>
			<rect x="381.5" y="88.1" transform="matrix(0.9432 -0.3324 0.3324 0.9432 -13.6583 143.0422)" width="59.6" height="46.8"/>
		</g>
		<g>
			<rect x="119.3" y="419.2" transform="matrix(-0.2234 0.9747 -0.9747 -0.2234 578.9405 399.2686)" width="22.2" height="22.2"/>
			<rect x="80.8" y="438.3" transform="matrix(-0.2234 0.9747 -0.9747 -0.2234 585.3661 457.0294)" width="59.6" height="46.8"/>
		</g>
		<g>
			<rect x="240.5" y="196.8" transform="matrix(0.6975 -0.7166 0.7166 0.6975 -77.8497 243.6358)" width="18.3" height="34.4"/>
			<rect x="210.4" y="226.5" transform="matrix(0.6975 -0.7166 0.7166 0.6975 -100.5622 238.8848)" width="44.4" height="24.1"/>
		</g>
		<circle class="st3" cx="645.7" cy="98.2" r="8.7"/>
		<ellipse class="st3" cx="668.4" cy="79.6" rx="11.6" ry="8.6"/>
		<circle class="st3" cx="680" cy="102.2" r="13.3"/>
		<circle class="st3" cx="671.8" cy="89.4" r="13.3"/>
		
			<ellipse transform="matrix(0.2479 -0.9688 0.9688 0.2479 411.864 709.2257)" class="st3" cx="662.7" cy="89.4" rx="15.3" ry="19.9"/>
		<path class="st3" d="M655,130.6l1.7,0.4c2.8,0.7,5.7-1,6.4-3.8l7-27.4c0.7-2.8-1-5.7-3.8-6.4l-1.7-0.4c-2.8-0.7-5.7,1-6.4,3.8
			l-7,27.4C650.5,127,652.2,129.9,655,130.6z"/>
		<g>
			
				<ellipse transform="matrix(0.6814 -0.7319 0.7319 0.6814 140.5434 638.8073)" class="st3" cx="804" cy="158" rx="7.7" ry="11.7"/>
			
				<ellipse transform="matrix(0.3829 -0.9238 0.9238 0.3829 349.7636 870.8555)" class="st3" cx="826.7" cy="173.6" rx="8.6" ry="11.6"/>
			<ellipse transform="matrix(0.829 -0.5593 0.5593 0.829 53.6662 480.1952)" class="st3" cx="812" cy="152.4" rx="7.1" ry="9.7"/>
			
				<ellipse transform="matrix(0.3829 -0.9238 0.9238 0.3829 365.3422 857.0201)" class="st3" cx="824.2" cy="155" rx="9.9" ry="12.9"/>
			
				<ellipse transform="matrix(0.1314 -0.9913 0.9913 0.1314 554.8132 952.397)" class="st3" cx="820.9" cy="159.6" rx="9.8" ry="21.6"/>
			<path class="st3" d="M796.2,190.9l1.4,1.1c2.3,1.7,5.6,1.3,7.3-1l17-22.7c1.7-2.3,1.3-5.6-1-7.3l-1.4-1.1c-2.3-1.7-5.6-1.3-7.3,1
				l-17,22.7C793.4,185.9,793.9,189.2,796.2,190.9z"/>
		</g>
		<g>
			
				<ellipse transform="matrix(0.8892 -0.4576 0.4576 0.8892 -21.3887 448.5971)" class="st3" cx="915.3" cy="268.5" rx="6.6" ry="6.7"/>
			
				<ellipse transform="matrix(0.7553 -0.6554 0.6554 0.7553 51.0103 680.9349)" class="st3" cx="937.4" cy="272.2" rx="6.5" ry="8.9"/>
			
				<ellipse transform="matrix(0.8892 -0.4576 0.4576 0.8892 -29.6879 457.9427)" class="st3" cx="930.5" cy="290.3" rx="10.1" ry="10.2"/>
			
				<ellipse transform="matrix(0.8892 -0.4576 0.4576 0.8892 -24.2074 458.1277)" class="st3" cx="933.6" cy="279" rx="10.1" ry="10.2"/>
			
				<ellipse transform="matrix(0.8892 -0.4576 0.4576 0.8892 -22.3236 455.4326)" class="st3" cx="929" cy="273.8" rx="11.6" ry="15.3"/>
			<path class="st3" d="M901.7,290.2l0.6,1.2c1,2,3.5,2.8,5.4,1.7l19-9.8c2-1,2.8-3.5,1.7-5.4l-0.6-1.2c-1-2-3.5-2.8-5.4-1.7
				l-19,9.8C901.5,285.8,900.7,288.3,901.7,290.2z"/>
		</g>
		<g>
			
				<ellipse transform="matrix(0.9874 -0.158 0.158 0.9874 -61.5401 164.1463)" class="st3" cx="1001.5" cy="469.1" rx="6.6" ry="6.7"/>
			
				<ellipse transform="matrix(8.060803e-02 -0.9967 0.9967 8.060803e-02 483.5791 1430.2937)" class="st3" cx="1017.1" cy="453" rx="8.9" ry="6.5"/>
			
				<ellipse transform="matrix(0.9874 -0.158 0.158 0.9874 -57.3559 163.6998)" class="st3" cx="1000.8" cy="442.5" rx="10.1" ry="10.2"/>
			
				<ellipse transform="matrix(0.9874 -0.158 0.158 0.9874 -58.3771 165.2378)" class="st3" cx="1009.9" cy="449.7" rx="10.1" ry="10.2"/>
			
				<ellipse transform="matrix(0.9874 -0.158 0.158 0.9874 -59.4841 165.2273)" class="st3" cx="1009.3" cy="456.7" rx="11.6" ry="15.3"/>
			<path class="st3" d="M977.6,459.6l-0.2-1.3c-0.4-2.2,1.2-4.3,3.3-4.6l21.1-3.4c2.2-0.4,4.3,1.2,4.6,3.3l0.2,1.3
				c0.4,2.2-1.2,4.3-3.3,4.6l-21.1,3.4C980.1,463.3,978,461.8,977.6,459.6z"/>
		</g>
		
			<rect x="851.6" y="216.2" transform="matrix(0.6915 0.7223 -0.7223 0.6915 430.4601 -557.0093)" class="st3" width="31.6" height="18.7"/>
		<polygon class="st3" points="855.6,201.3 891.8,202.1 891,238.4 		"/>
		<g>
			
				<rect x="935.8" y="354.4" transform="matrix(0.3867 0.9222 -0.9222 0.3867 926.3367 -665.2587)" class="st3" width="55" height="18.7"/>
			<polygon class="st3" points="953.6,319.4 994.5,350.7 988.1,401.8 			"/>
		</g>
		<g>
			
				<rect x="710.5" y="129.3" transform="matrix(0.9371 0.3492 -0.3492 0.9371 94.1186 -244.8928)" class="st3" width="31.6" height="18.7"/>
			<polygon class="st3" points="705.2,122 738.1,106.9 753.2,139.9 			"/>
		</g>
		<g>
			<path class="st4" d="M563.2,513l-1.2-94.9l0,0.6c43.3,0,78.3,41.3,78.3,92.4l0.6,0.6h-78.3"/>
			<path class="st5" d="M560.6,512.6l0.4-94.9l0,0.6c-43.3,0.4-78,42.1-77.5,93.1l-0.6,0.6l78.3-0.7"/>
		</g>
		<line class="st6" x1="222.5" y1="304.5" x2="494.7" y2="460.8"/>
		<line class="st6" x1="379" y1="175.6" x2="518.5" y2="439.5"/>
		<line class="st6" x1="152.2" y1="491.2" x2="490.5" y2="492.5"/>
		<line class="st7" x1="735.5" y1="173.5" x2="588.2" y2="423.4"/>
		<line class="st7" x1="892.1" y1="308.9" x2="622.1" y2="456.2"/>
		<line class="st7" x1="966.5" y1="485.5" x2="637.3" y2="490.1"/>
		<line class="st7" x1="559" y1="138.2" x2="563.7" y2="417.6"/>
		<text transform="matrix(1.5847 0 0 1 135.2495 659.9688)"><tspan x="0" y="0" class="st3 st8 st9">Re</tspan><tspan x="158.4" y="0" class="st8 st9">-Cycle</tspan></text>
		<g>
			<g>
				<g>
					<g>
						<g>
							<path class="st10" d="M441,71c-0.1,0-0.2,0.2-0.2,0.1L441,71L441,71z"/>
							<path class="st10" d="M440.5,71.3c0.1-0.1,0.4-0.2,0.6-0.4c-0.3,0.2-0.2,0.1-0.5,0.3c0,0,0.1-0.1,0.2-0.1
								c-0.1,0,0.1,0-0.1,0.1c-0.2,0.1-0.2,0.1,0,0C440.7,71.2,440.6,71.3,440.5,71.3z"/>
							<path class="st10" d="M440.2,71.7L440.2,71.7C440.2,71.7,440.2,71.7,440.2,71.7z"/>
							<path class="st10" d="M440,71.8C440,71.8,440,71.8,440,71.8C440,71.8,440,71.8,440,71.8z"/>
							<path class="st10" d="M439.7,72C439.7,72,439.7,72,439.7,72C439.7,72,439.7,72,439.7,72z"/>
							<path class="st10" d="M440.2,71.7L440.2,71.7C440.2,71.7,440.1,71.7,440.2,71.7z"/>
							<path class="st10" d="M441.2,70.9C441.2,70.9,441.2,70.9,441.2,70.9C441.1,70.9,441.2,70.9,441.2,70.9
								C441.2,70.9,441.2,70.9,441.2,70.9z"/>
							<path class="st10" d="M439.9,71.8L439.9,71.8c0,0-0.1,0-0.1,0.1L439.9,71.8z"/>
							<path class="st10" d="M439.9,71.8c0,0,0.2-0.1,0.3-0.2c-0.1,0.1-0.1,0.1-0.2,0.1C440,71.7,439.9,71.8,439.9,71.8z"/>
							<path class="st10" d="M440.3,71.5L440.3,71.5C440.2,71.5,440.3,71.5,440.3,71.5z"/>
							<path class="st10" d="M439.9,71.8C439.8,71.9,439.8,71.9,439.9,71.8C439.8,71.9,439.9,71.9,439.9,71.8z"/>
							<path class="st10" d="M441.9,71.1C441.9,71.1,441.9,71.1,441.9,71.1C441.9,71.1,441.9,71.1,441.9,71.1z"/>
							<path class="st10" d="M440.8,71.9L440.8,71.9c-0.1,0-0.1,0.1-0.1,0.1L440.8,71.9z"/>
							<path class="st10" d="M439.4,72.2C439.4,72.2,439.4,72.2,439.4,72.2C439.4,72.3,439.4,72.3,439.4,72.2z"/>
							<path class="st10" d="M439.7,72.2c0.2-0.1,0.3-0.2,0.5-0.3C440.1,72,439.8,72.2,439.7,72.2z"/>
							<path class="st10" d="M441.2,70.9C441.2,70.9,441.2,70.9,441.2,70.9C441.2,70.9,441.2,70.9,441.2,70.9z"/>
							<path class="st10" d="M440.2,71.9C440.2,71.9,440.2,71.9,440.2,71.9L440.2,71.9C440.2,71.9,440.2,71.9,440.2,71.9z"/>
							<path class="st10" d="M439.6,72.2c0,0,0.1,0,0.1-0.1C439.7,72.1,439.7,72.1,439.6,72.2z"/>
							<path class="st10" d="M439.9,71.9L439.9,71.9C439.9,71.9,439.9,71.9,439.9,71.9z"/>
							<path class="st10" d="M439.9,72C439.9,72,439.9,72,439.9,72C439.9,72,439.9,72,439.9,72C439.9,72,439.9,72,439.9,72z"/>
							<path class="st10" d="M440,72C440,72,440,72,440,72C440,72,440,72,440,72L440,72z"/>
							<path class="st10" d="M441.8,71.1c-0.1,0-0.1,0.1-0.2,0.1C441.7,71.2,441.8,71.1,441.8,71.1z"/>
							<path class="st10" d="M441.1,71c0.1,0,0.1-0.1,0.1-0.1C441.2,70.9,441.2,70.9,441.1,71C441.1,70.9,441.1,71,441.1,71z"/>
							<path class="st10" d="M441.8,70.7L441.8,70.7C441.8,70.7,441.8,70.7,441.8,70.7z"/>
							<path class="st10" d="M441.7,71.1L441.7,71.1C441.7,71,441.7,71,441.7,71.1z"/>
							<path class="st10" d="M441.8,70.7c-0.1,0.1-0.1,0.1-0.2,0.1c0,0,0,0,0.1,0L441.8,70.7z"/>
							<path class="st10" d="M441.6,71.3C441.6,71.3,441.6,71.3,441.6,71.3C441.6,71.3,441.6,71.3,441.6,71.3z"/>
							<path class="st10" d="M442.1,70.9c0,0-0.3,0.2-0.5,0.3C441.6,71.3,441.9,71.1,442.1,70.9c-0.2,0.1-0.5,0.3-0.4,0.3
								c0.1,0,0.1,0,0.1-0.1c-0.2,0.2,0,0-0.3,0.2c0,0,0.1,0,0.1-0.1c-0.2,0.1-0.3,0.2-0.4,0.3c0,0-0.2,0.1,0,0c0,0,0.1,0,0.1-0.1
								l-0.1,0.1c0.3-0.2,0.1-0.1,0.3-0.2c-0.1,0.1-0.3,0.2-0.3,0.2c0.3-0.2,0.1-0.1,0.3-0.2l-0.1,0.1c0.4-0.3,0,0,0.4-0.3
								c0.1-0.1-0.1,0.1-0.1,0c-0.2,0.1-0.2,0.2-0.4,0.3c-0.3,0.2,0.7-0.5,0.3-0.2c-0.2,0.1-0.5,0.4-0.4,0.2l0.3-0.2
								c0,0-0.5,0.3-0.2,0.2c0.1-0.1,0.1-0.1,0.1-0.1c0.3-0.2-0.2,0.1-0.2,0.1l0.3-0.2c0,0-0.3,0.2-0.3,0.2c0.1-0.1,0.2-0.1,0.3-0.2
								c-0.1,0.1,0,0,0.2-0.1l-0.2,0.2c0,0,0.1-0.1,0.2-0.1c0.1-0.1-0.2,0.1-0.3,0.2c0,0,0.1-0.1,0.2-0.1c-0.2,0.1-0.5,0.3-0.2,0.1
								l0.1,0c0.1-0.1-0.5,0.3-0.3,0.2l0,0c0.1-0.1-0.1,0.1,0.2-0.2c-0.4,0.2,0.2-0.1-0.3,0.2c0.2-0.2,0.3-0.2,0.5-0.3
								c0,0-0.3,0.2-0.4,0.2l0.3-0.2l-0.3,0.2l0.3-0.2l-0.1,0c0,0-0.1,0.1-0.2,0.1c-0.1,0.1,0.2-0.1,0.3-0.2l-0.2,0.1
								c0.1-0.1,0.1-0.1,0.2-0.1c-0.3,0.2,0.3-0.2,0,0c-0.1,0-0.2,0.1-0.2,0.1c0.2-0.1,0.2-0.1,0.1-0.1l0.2-0.1c0,0-0.1,0-0.1,0
								c-0.1,0.1-0.4,0.3-0.4,0.3l0.3-0.2c-0.2,0.1-0.1,0.1-0.3,0.2c0,0,0.3-0.2,0.4-0.3l-0.1,0.1c0.1-0.1,0.1-0.1,0.2-0.2
								c-0.2,0.1,0.3-0.2,0,0l0.1-0.1c0,0-0.1,0.1-0.1,0.1c-0.2,0.2-0.2,0.1-0.4,0.2c0.1-0.1,0.3-0.2,0.2-0.2
								c-0.1,0.1-0.2,0.1-0.3,0.2c0.2-0.1,0.2-0.1,0.3-0.2c0,0,0,0-0.2,0.1c-0.1,0.1-0.1,0.1-0.2,0.1c0,0,0.1-0.1,0.2-0.1l0,0
								c-0.3,0.2,0.6-0.4,0.2-0.1l0,0l-0.2,0.2c0,0,0.2-0.1,0.3-0.2c-0.4,0.2,0,0-0.2,0.1c0.6-0.4-0.1,0,0.3-0.3l-0.1,0.1
								c-0.1,0.1,0.1-0.1,0.1-0.1c-0.1,0.1-0.1,0.1-0.2,0.1c-0.2,0.1,0.2-0.2,0.3-0.3c0,0-0.8,0.5-0.4,0.3l0.3-0.2
								c-0.3,0.2,0,0-0.3,0.2c0.1,0,0.1-0.1,0.1-0.1c0.2-0.1,0,0-0.2,0.1c0,0,0.1-0.1,0.2-0.2c0.1-0.1-0.3,0.2-0.1,0
								c0,0,0.1,0,0.1-0.1c-0.1,0.1,0,0-0.2,0.1c0.1-0.1-0.1,0.1,0,0c-0.3,0.2,0.1-0.1-0.2,0.2c0.4-0.3,0.3-0.2,0.1-0.1
								c0.1-0.1,0.1-0.1,0.3-0.2c0,0-0.1,0-0.3,0.2c0.4-0.3-0.4,0.2,0.2-0.2c-0.2,0.1-0.3,0.2-0.4,0.3c0.4-0.2,0,0,0.4-0.3
								c-0.2,0.1-0.5,0.3-0.4,0.2c0.1,0,0.2-0.1,0.2-0.2c-0.2,0.1,0,0-0.2,0.1c0,0,0.1,0,0.1-0.1c0,0,0.1,0-0.1,0.1l0,0
								c-0.2,0.2-0.5,0.3-0.6,0.4c0.5-0.3,0.1-0.1,0.7-0.5c0,0-0.1,0.1-0.2,0.2c0,0,0.1-0.1,0.2-0.2c-0.1,0.1-0.3,0.2-0.3,0.2
								c0.1-0.1,0.1-0.1,0.2-0.1c-0.2,0.1-0.3,0.2-0.3,0.2c0,0,0.1-0.1,0.1-0.1c0,0-0.4,0.3-0.3,0.2c0.4-0.2,0.1-0.1,0.4-0.3
								l-0.1,0.1l-0.2,0.1c0,0-0.2,0.1-0.1,0.1l0.1-0.1l-0.1,0l-0.1,0.1c-0.2,0.1-0.4,0.3-0.3,0.2c0,0,0,0,0.2-0.1c0,0,0,0,0,0
								c-0.1,0.1-0.2,0.1-0.1,0.1c0.1-0.1,0.3-0.2,0.4-0.3c-0.3,0.2-0.1,0-0.4,0.2c0.1,0,0.2-0.2,0.3-0.2l-0.2,0.1
								c0.1,0,0.1-0.1,0.2-0.2c0,0-0.4,0.3-0.2,0.1c0,0,0,0,0.1-0.1c0.1-0.1-0.1,0.1,0,0c0.3-0.2,0.1,0,0.3-0.2
								c-0.1,0-0.4,0.2-0.3,0.2l0,0c-0.4,0.3,0.2-0.1,0,0c0,0,0.2-0.2,0.2-0.1c0.1,0-0.1,0.1-0.3,0.2l0.1-0.1c0.1-0.1,0.1,0,0.1-0.1
								c-0.1,0.1-0.1,0.1-0.3,0.2c0.6-0.4-0.4,0.2,0.2-0.1c0,0,0.1-0.1,0.1-0.1l-0.1,0.1c-0.2,0.1-0.1,0.1-0.3,0.2
								c-0.1,0.1-0.2,0.1-0.2,0.1c0.1-0.1,0.3-0.2,0.4-0.3c-0.1,0-0.1,0.1-0.2,0.1c0.3-0.2-0.4,0.3-0.2,0.1l0.1-0.1
								c-0.1,0-0.2,0.1-0.2,0.1c0.2-0.1,0.1-0.1,0.3-0.2c0,0-0.4,0.3-0.2,0.1c0.1,0,0.1,0,0.1-0.1c0.3-0.2,0.2-0.1,0.2-0.2l0,0
								l0.1-0.1l-0.1,0c-0.6,0.4-0.1,0.1-0.5,0.3c0.4-0.2,0.2-0.1,0.5-0.3c0.1,0,0.1-0.1,0.2-0.1c-0.2,0.1,0.2-0.1-0.1,0.1
								c0.1-0.1,0,0,0.2-0.1c-0.1,0-0.1,0.1-0.2,0.2c-0.3,0.2,0.3-0.2,0,0c-0.2,0.1-0.4,0.3-0.6,0.4c0.1-0.1,0.3-0.2,0.3-0.2
								c0.1-0.1,0.1-0.1,0,0c0.1,0,0.1-0.1,0.2-0.1c0,0-0.3,0.2-0.2,0.1c0.1-0.1,0.2-0.2,0.3-0.2c-0.1,0-0.2,0.1-0.3,0.2
								c0.1-0.1,0.2-0.1,0.3-0.2c-0.1,0-0.1,0.1-0.4,0.2l-0.1,0.1c0,0,0.2-0.1,0.2-0.2c0.2-0.1-0.1,0.1-0.2,0.1l-0.1,0
								c-0.5,0.3,0.1,0,0.1,0l-0.3,0.2l0.3-0.2c-0.1,0.1-0.3,0.2-0.3,0.2c-0.2,0.1,0.1-0.1-0.1,0c0,0,0,0-0.1,0l0.1-0.1
								c-0.1,0-0.2,0.2-0.2,0.1c-0.2,0.1,0.3-0.2,0,0l0,0c0.1-0.1,0.3-0.2,0.6-0.4l-0.6,0.4l0.3-0.2c0,0,0,0-0.1,0.1
								c0.2-0.1,0.1-0.1,0.3-0.2c-0.2,0.2,0.1-0.1-0.3,0.2c0.2-0.1,0.1-0.1,0.3-0.2c-0.4,0.3,0.1,0-0.1,0.1
								c-0.2,0.1-0.1,0.1-0.3,0.2c0.4-0.3-0.1,0.1,0,0c0.3-0.2,0.1-0.1,0.2-0.1c-0.1,0.1-0.2,0.1-0.3,0.2l-0.1,0
								c0.3-0.2,0.2-0.2,0.3-0.2c-0.2,0.1-0.3,0.2-0.3,0.2l0,0c0.1-0.1,0.2-0.1,0.2-0.1l-0.2,0.2c0,0,0.3-0.2,0.1-0.1
								c0.2-0.1,0.6-0.4,0.7-0.5c-0.1,0.1-0.3,0.2-0.4,0.2c0,0,0.1-0.1,0,0l-0.2,0.1c-0.1,0.1,0.2-0.1,0.1-0.1
								c-0.2,0.1-0.1,0.1-0.2,0.2c0,0,0.1,0,0,0c0,0-0.1,0.1-0.2,0.2c0.1-0.1,0.2-0.1,0.2-0.2c0,0-0.2,0.1-0.3,0.2
								c0.1-0.1,0,0,0.2-0.2c0,0-0.1,0.1-0.2,0.1c0.1-0.1,0,0,0.3-0.2l0,0c0,0,0,0,0,0c0.2-0.2-0.1,0.1,0,0l-0.1,0.1
								c0.1-0.1,0.1,0,0.2-0.1c0,0-0.1,0.1-0.2,0.2c0.1,0,0.2-0.1,0,0c-0.1,0.1-0.1,0.1-0.1,0.1c-0.1,0-0.2,0.1,0,0
								c-0.2,0.1-0.3,0.2-0.2,0.1l0.1-0.1c0,0,0,0,0,0l-0.3,0.2c-0.3,0.2,0.6-0.4,0,0c0.2-0.1,0.1-0.1,0.4-0.2c0,0-0.4,0.3-0.4,0.3
								c-0.2,0.1,0.4-0.3,0.3-0.2c0.1-0.1,0.4-0.2,0.5-0.3c0,0-0.4,0.3-0.5,0.3c0,0,0,0,0.1,0c0,0-0.1,0.1-0.2,0.1l0.1-0.1
								c-0.1,0.1-0.1,0.1-0.3,0.2c0.1-0.1,0.2-0.1,0.2-0.1c-0.1,0.1,0,0-0.1,0.1c0.1,0,0.2-0.1,0.2-0.1c-0.1,0.1,0.2-0.1,0.2-0.1
								c-0.1,0.1-0.4,0.2-0.2,0.2c-0.1,0.1-0.3,0.2-0.3,0.2c0.2-0.1-0.1,0.1-0.2,0.1l-0.1,0.1c0,0,0,0,0,0l0.2-0.1c0,0,0,0-0.1,0.1
								c0.1-0.1,0.3-0.2,0.5-0.3c-0.1,0.1,0.1-0.1-0.2,0.1c0.1-0.1-0.3,0.2-0.3,0.2c0,0,0,0,0,0c0,0-0.1,0-0.1,0
								c-0.2,0.2,0.3-0.2,0.3-0.2c-0.1,0.1-0.3,0.2-0.2,0.2c0,0,0.2-0.2,0.4-0.2c-0.1,0.1,0.1-0.1,0.1,0l0.1,0
								c0.1-0.1,0.1-0.1,0.2-0.1c-0.1,0.1-0.1,0.1-0.1,0.1c0.3-0.2-0.3,0.2-0.1,0.1c-0.1,0.1-0.3,0.2-0.3,0.2c0.2-0.1-0.2,0.1,0,0
								c0.2-0.1,0.1-0.1,0.3-0.2l-0.1,0.1l0.3-0.2c0,0-0.1,0.1-0.1,0.1c0.2-0.1,0.1-0.1,0.3-0.2c-0.3,0.2,0.2-0.1,0,0l-0.5,0.3
								c-0.2,0.1,0.3-0.2,0.1-0.1l0.1-0.1c0.2-0.1,0,0,0.1-0.1c-0.2,0.1-0.2,0.1-0.3,0.2c0.1-0.1,0,0,0.3-0.2l-0.2,0.1
								c-0.1,0.1,0.5-0.3,0.4-0.3c-0.2,0.1-0.3,0.2-0.4,0.3c0,0,0,0,0.1-0.1c-0.1,0.1,0.2-0.1,0.1,0c0.1,0,0.2-0.2,0.2-0.2
								c0,0-0.1,0.1-0.1,0.1c0.1-0.1,0.1-0.1,0.3-0.2c-0.5,0.3,0,0-0.4,0.3c0.1,0,0.1-0.1,0.1-0.1c0,0-0.1,0.1-0.1,0
								c-0.2,0.1,0.5-0.3,0.3-0.2c-0.3,0.2-0.1,0.1-0.2,0.2c-0.5,0.4,0.1,0-0.2,0.2l0,0c-0.2,0.1,0.2-0.1,0.2-0.1c0,0,0,0-0.1,0.1
								c0.3-0.2,0.4-0.2,0.4-0.3c-0.2,0.1-0.1,0.1-0.3,0.2c0,0,0.3-0.2,0.4-0.3c-0.1,0.1-0.2,0.1-0.4,0.3l0,0c-0.3,0.2,0,0,0,0
								l-0.1,0.1c0,0,0.4-0.2,0.3-0.2l0.1-0.1c0.3-0.2-0.2,0.1,0.1,0L440,72c0.1-0.1,0.3-0.2,0.4-0.2c-0.2,0.2-0.4,0.2-0.5,0.3
								c0,0,0,0,0.2-0.1c0,0-0.1,0.1-0.1,0c0.3-0.2,0.4-0.3,0.4-0.2c-0.6,0.4-0.2,0.1-0.7,0.4c0.2-0.2-0.1,0.1-0.1,0.1
								c0.5-0.3,0,0,0.5-0.3c0,0,0,0,0,0l-0.3,0.2c-0.1,0.1-0.1,0.1-0.2,0.1c0,0-0.2,0.1-0.3,0.2c0.2-0.1,0.3-0.2,0.2-0.1l0.2-0.2
								c0.3-0.2-0.4,0.3-0.2,0.1l-0.2,0.1c0.1-0.1,0,0,0.4-0.3c-0.1,0-0.2,0.1-0.2,0.2c-0.1,0,0.4-0.3,0.2-0.1l-0.1,0.1
								c0,0,0.2-0.2,0.1-0.1c-0.1,0-0.1,0.1-0.1,0.1c0,0,0.2-0.1,0.1-0.1l-0.1,0.1c-0.2,0.1,0.3-0.2,0.4-0.3
								c-0.4,0.2-0.5,0.3-0.5,0.4l-0.1,0c0,0,0.3-0.2,0.5-0.3c-0.4,0.3-0.2,0.1-0.4,0.3c0.1,0,0.3-0.2,0.3-0.2
								c-0.1,0.1,0.3-0.2-0.1,0.1l0,0c-0.3,0.2-0.2,0.2-0.2,0.2l0.4-0.3c-0.6,0.4,0.2-0.1-0.3,0.2c0.1-0.1,0.1-0.1,0.2-0.1l-0.2,0.2
								c-0.1,0-0.1,0.1,0,0l-0.2,0.1c0,0,0.7-0.5,0.7-0.5l-0.4,0.2c0,0-0.3,0.2,0,0c-0.1,0-0.2,0.1-0.2,0.1c0,0-0.2,0.2,0.2-0.2
								c-0.3,0.2,0,0,0.1-0.1l-0.2,0.2c0.3-0.2,0.4-0.2,0.5-0.3c0,0-0.2,0.1-0.1,0.1c-0.1,0.1,0.2-0.1,0.1-0.1l-0.1,0.1
								c0,0,0.1,0,0.2-0.2c0.1-0.1-0.1,0-0.3,0.2c0.1-0.1,0.3-0.2,0.2-0.2c-0.1,0.1-0.1,0.1-0.2,0.1c-0.2,0.1,0.3-0.2,0,0
								c-0.1,0.1-0.1,0.1-0.1,0.1c0,0,0,0,0,0c-0.2,0.1-0.3,0.2-0.5,0.4c0.2-0.1,0.5-0.3,0.4-0.3c0,0,0,0-0.1,0l0,0c0,0,0,0,0,0
								c0,0-0.1,0-0.1,0c-0.2,0.1-0.1,0.1-0.1,0.1c0.2-0.2,0.2-0.1,0.4-0.3c0,0,0,0,0,0c0,0,0,0,0,0c0,0,0,0,0,0c0,0,0,0,0,0
								c0.1-0.1,0.2-0.1,0.1-0.1c0.2-0.1,0.3-0.2,0.4-0.3c-0.3,0.2-0.5,0.3-0.7,0.5c0.1-0.1,0.1-0.1,0.5-0.3c0.1,0-0.1,0.1-0.2,0.1
								c0,0,0,0-0.1,0.1c0.1-0.1,0,0,0.4-0.2c-0.1,0.1-0.3,0.2-0.2,0.2l-0.1,0.1c-0.5,0.3,0.8-0.5,0.2-0.1c0,0,0.1,0,0.1-0.1
								c-0.3,0.2,0.3-0.2-0.2,0.1c-0.1,0.1,0.1-0.1,0.3-0.2l-0.3,0.2l0.3-0.2c0.2-0.1-0.6,0.4-0.2,0.2l0.2-0.1c0,0,0.1-0.1-0.1,0.1
								c0,0,0.2-0.1,0.1-0.1l-0.1,0.1l0.2-0.1c-0.1,0.1-0.5,0.3-0.5,0.4c0.1,0,0.4-0.3,0.5-0.3c0,0,0.1-0.1,0.2-0.1l0.1,0
								c0.4-0.3,0.8-0.5,1.1-0.7l-0.2,0.2l0.2-0.1l0,0c0.2-0.1,0,0-0.1,0.1c0.1-0.1,0.2-0.1,0.2-0.1l-0.4,0.2
								c0.2-0.1,0.3-0.2,0.4-0.3c-0.2,0.1-0.3,0.2-0.5,0.3c0.2-0.1,0.3-0.2,0.2-0.1c0.1-0.1,0.2-0.1,0.2-0.1c-0.1,0.1-0.1,0-0.3,0.2
								c0.2-0.1-0.1,0,0.3-0.2c-0.1,0.1-0.3,0.2-0.3,0.2C442,71,441.6,71.3,442.1,70.9c-0.5,0.3-0.2,0.2-0.5,0.3c0,0,0.1-0.1,0.1,0
								c0,0,0.2-0.1,0.2-0.2c-0.3,0.2-0.4,0.3-0.6,0.4C441.7,71.2,441.7,71.2,442.1,70.9c-0.3,0.2-0.3,0.2-0.6,0.4
								c0.2-0.1,0.1-0.1,0.4-0.2c-0.4,0.3-0.1,0-0.3,0.2c0.2-0.1,0.4-0.3,0.3-0.2C442,71,442.1,70.9,442.1,70.9z M441.4,71.3
								C441.4,71.3,441.4,71.3,441.4,71.3C441.4,71.3,441.4,71.3,441.4,71.3C441.4,71.3,441.4,71.3,441.4,71.3z M441.4,71.3
								C441.4,71.3,441.4,71.3,441.4,71.3c-0.1,0.1-0.2,0.1-0.2,0.1C441.3,71.4,441.3,71.4,441.4,71.3z M439.8,72.4
								C439.7,72.4,439.8,72.4,439.8,72.4C439.8,72.4,439.8,72.4,439.8,72.4c0.1-0.1,0.1-0.1,0.1-0.1
								C439.8,72.4,439.8,72.4,439.8,72.4z"/>
							<path class="st10" d="M440.1,72.2C440.1,72.2,440.1,72.2,440.1,72.2C440.1,72.2,440.1,72.2,440.1,72.2
								C440.1,72.2,440.1,72.2,440.1,72.2C440.1,72.2,440.1,72.2,440.1,72.2z"/>
							<path class="st10" d="M440.2,71.6L440.2,71.6C440.2,71.6,440.2,71.6,440.2,71.6C440.2,71.6,440.2,71.6,440.2,71.6z"/>
							<polygon class="st10" points="441.8,71 441.7,71 441.8,71 							"/>
							<path class="st10" d="M441,71.1C441,71.1,441,71.1,441,71.1C441,71.1,441,71.1,441,71.1z"/>
							<path class="st10" d="M441,71L441,71C441.1,71,441,71,441,71z"/>
							<path class="st10" d="M441.1,71c0,0-0.1,0-0.1,0.1c0,0,0,0,0,0L441.1,71z"/>
							<path class="st10" d="M441.5,70.9C441.5,70.9,441.5,70.9,441.5,70.9C441.5,70.9,441.5,70.9,441.5,70.9z"/>
							<path class="st10" d="M440.9,71.2c0,0,0.1-0.1,0.1-0.1C441.1,71.1,441.1,71.1,440.9,71.2z"/>
							<polygon class="st10" points="441.8,70.7 441.8,70.7 441.8,70.7 							"/>
							<path class="st10" d="M441,71.2C441.1,71.1,441.1,71.1,441,71.2C441,71.2,441,71.2,441,71.2z"/>
							<path class="st10" d="M441.2,70.9L441.2,70.9C441.2,70.9,441.2,70.9,441.2,70.9L441.2,70.9z"/>
							<path class="st10" d="M441.2,70.9L441.2,70.9C441.2,70.9,441.2,70.9,441.2,70.9z"/>
							<path class="st10" d="M441.1,70.9L441.1,70.9C441.2,70.9,441.2,70.9,441.1,70.9z"/>
							<path class="st10" d="M441.1,70.9L441.1,70.9C441.2,70.9,441.2,70.9,441.1,70.9z"/>
							<path class="st10" d="M441.2,70.9c0,0,0.2-0.1,0.1-0.1L441.2,70.9C441.3,70.8,441,71,441.2,70.9z"/>
							<path class="st10" d="M440.1,71.6L440.1,71.6c0,0-0.1,0.1-0.2,0.1C439.7,71.9,440.1,71.6,440.1,71.6z"/>
							<path class="st10" d="M440,71.7c0,0-0.1,0.1-0.2,0.1C439.9,71.8,439.9,71.8,440,71.7z"/>
							<path class="st10" d="M440,71.8l-0.2,0.1C439.8,71.9,439.9,71.9,440,71.8z"/>
							<polygon class="st10" points="441.1,71.1 441.3,71 441.1,71.1 							"/>
							<polygon class="st10" points="439.6,72.1 439.6,72.1 439.7,72 							"/>
							<path class="st10" d="M439.7,72.1l0.3-0.2C440,72,439.7,72.2,439.7,72.1z"/>
							<path class="st10" d="M440,72C439.9,72.1,439.8,72.1,440,72C440,72,440.1,72,440,72z"/>
							<polygon class="st10" points="439.7,72.4 439.6,72.4 439.7,72.4 							"/>
						</g>
					</g>
				</g>
			</g>
		</g>
	</g>
</g>
</svg>
