<svg version="1.1" id="Layer_1" xmlns="http://www.w3.org/2000/svg" xmlns:xlink="http://www.w3.org/1999/xlink" x="0" y="0" viewBox="0 0 1111 711" xml:space="preserve"><style>.st3{fill:#006837}.st8{font-family:&apos;CambriaMath&apos;}.st9{font-size:142.877px}.st10{fill:#fff}</style><defs><path id="SVGID_1_" d="M-119.5-.5h1280v697h-1280z"/></defs><clipPath id="SVGID_2_"><use xlink:href="#SVGID_1_" overflow="visible"/></clipPath><g clip-path="url(#SVGID_2_)"><path d="M556.7 123.6c233.6 0 422.6 186.6 422.6 417.3m-417.4-14.8h417.3" fill="none" stroke="#006837" stroke-width="28.346" stroke-miterlimit="10"/><path d="M144.6 526.1h417.3m-426.7 14.8c0-230.7 188.7-417.3 422-417.3" stroke="#000" fill="none" stroke-width="28.346" stroke-miterlimit="10"/><path class="st3" d="M568.8 227c-11.9 3.4 40.7-50.9 27-77.1-5.5-10.6-17.8-12.3-17-15 2.1-7.4 126.6 9.6 104.7 26.8-57.3 44.9-76 54.3-114.7 65.3zm157.3 51.7c-12.2-2.2 58.9-28 58-57.5-.3-11.9-10.6-18.9-8.8-20.9 5.1-5.7 109.6 64 82.4 69.9-71.1 15.3-92 15.5-131.6 8.5zm109.7 114.2c-9.6-7.9 65 4.8 78.9-21.2 5.6-10.5.1-21.7 2.8-22.5 7.3-2.4 63.5 109.9 37 101.6-69.5-22-87.8-32.2-118.7-57.9z"/><path d="M242.3 479.7c1.4 12.3-43.5-48.5-71.6-39.3-11.3 3.7-15.1 15.5-17.6 14.3-6.9-3.3 30.3-123.3 43.7-98.9 34.8 64 41 83.9 45.5 123.9zm80-150.8c-4.2 11.7-17.9-62.7-47.2-66.7-11.8-1.6-20.4 7.4-22.1 5.2-4.7-6 81.2-97.6 82.5-69.8 3.4 72.8.2 93.4-13.2 131.3zM453 239.5c-9.4 8.1 15.5-63.3-7.9-81.3-9.5-7.3-21.4-3.7-21.8-6.4-1.1-7.6 118.9-44.5 106.3-19.7-33.1 64.8-46.2 81.2-76.6 107.4z"/><path transform="rotate(-55.375 183.961 260.963)" d="M175.5 225.9h17V296h-17z"/><path transform="rotate(-55.375 177.608 308.673)" d="M154.8 295.8h45.6v25.7h-45.6z"/><path transform="rotate(-5.669 507.264 100.608) scale(.99999)" d="M484.5 87.8h45.6v25.7h-45.6z"/><path transform="rotate(-68.271 112.45 389.617)" d="M101.3 354.5h22.4v70.1h-22.4z"/><path transform="rotate(-68.271 142.11 374.938)" d="M119.3 362.1h45.6v25.7h-45.6z"/><path transform="rotate(-31.761 292.251 171.565)" d="M275.3 147.6h33.9v47.9h-33.9z"/><path transform="rotate(-31.761 295.517 132.427)" d="M279.8 76.9h31.6v111h-31.6z"/><path transform="rotate(-19.413 382.278 134.667)" d="M371.2 123.6h22.2v22.2h-22.2z"/><path transform="rotate(-19.413 411.27 111.439)" d="M381.5 88.1h59.6v46.8h-59.6z"/><path transform="rotate(102.909 130.419 430.277)" d="M119.3 419.2h22.2v22.2h-22.2z"/><path transform="rotate(102.909 110.622 461.718)" d="M80.8 438.3h59.6v46.8H80.8z"/><path transform="rotate(-45.773 249.644 214.02)" d="M240.5 196.8h18.3v34.4h-18.3z"/><path transform="rotate(-45.773 232.66 238.546)" d="M210.4 226.5h44.4v24.1h-44.4z"/><circle class="st3" cx="645.7" cy="98.2" r="8.7"/><ellipse class="st3" cx="668.4" cy="79.6" rx="11.6" ry="8.6"/><circle class="st3" cx="680" cy="102.2" r="13.3"/><circle class="st3" cx="671.8" cy="89.4" r="13.3"/><ellipse transform="rotate(-75.647 662.706 89.345)" class="st3" cx="662.7" cy="89.4" rx="15.3" ry="19.9"/><path class="st3" d="M655 130.6l1.7.4c2.8.7 5.7-1 6.4-3.8l7-27.4c.7-2.8-1-5.7-3.8-6.4l-1.7-.4c-2.8-.7-5.7 1-6.4 3.8l-7 27.4c-.7 2.8 1 5.7 3.8 6.4z"/><ellipse transform="rotate(-47.047 804.039 157.977)" class="st3" cx="804" cy="158" rx="7.7" ry="11.7"/><ellipse transform="rotate(-67.487 826.705 173.627)" class="st3" cx="826.7" cy="173.6" rx="8.6" ry="11.6"/><ellipse transform="rotate(-34.006 811.98 152.343)" class="st3" cx="812" cy="152.4" rx="7.1" ry="9.7"/><ellipse transform="rotate(-67.487 824.139 155.049)" class="st3" cx="824.2" cy="155" rx="9.9" ry="12.9"/><ellipse transform="rotate(-82.449 820.916 159.599)" class="st3" cx="820.9" cy="159.6" rx="9.8" ry="21.6"/><path class="st3" d="M796.2 190.9l1.4 1.1c2.3 1.7 5.6 1.3 7.3-1l17-22.7c1.7-2.3 1.3-5.6-1-7.3l-1.4-1.1c-2.3-1.7-5.6-1.3-7.3 1l-17 22.7c-1.8 2.3-1.3 5.6 1 7.3z"/><ellipse transform="rotate(-27.231 915.306 268.441)" class="st3" cx="915.3" cy="268.5" rx="6.6" ry="6.7"/><ellipse transform="rotate(-40.948 937.355 272.14)" class="st3" cx="937.4" cy="272.2" rx="6.5" ry="8.9"/><ellipse transform="rotate(-27.231 930.447 290.245)" class="st3" cx="930.5" cy="290.3" rx="10.1" ry="10.2"/><ellipse transform="rotate(-27.231 933.57 279.025)" class="st3" cx="933.6" cy="279" rx="10.1" ry="10.2"/><ellipse transform="rotate(-27.231 928.948 273.788)" class="st3" cx="929" cy="273.8" rx="11.6" ry="15.3"/><path class="st3" d="M901.7 290.2l.6 1.2c1 2 3.5 2.8 5.4 1.7l19-9.8c2-1 2.8-3.5 1.7-5.4l-.6-1.2c-1-2-3.5-2.8-5.4-1.7l-19 9.8c-1.9 1-2.7 3.5-1.7 5.4z"/><ellipse transform="rotate(-9.091 1001.604 469.124)" class="st3" cx="1001.5" cy="469.1" rx="6.6" ry="6.7"/><ellipse transform="rotate(-85.377 1017.15 453.036)" class="st3" cx="1017.1" cy="453" rx="8.9" ry="6.5"/><ellipse transform="rotate(-9.091 1000.888 442.585)" class="st3" cx="1000.8" cy="442.5" rx="10.1" ry="10.2"/><ellipse transform="rotate(-9.091 1010.05 449.777)" class="st3" cx="1009.9" cy="449.7" rx="10.1" ry="10.2"/><ellipse transform="rotate(-9.091 1009.431 456.734)" class="st3" cx="1009.3" cy="456.7" rx="11.6" ry="15.3"/><path class="st3" d="M977.6 459.6l-.2-1.3c-.4-2.2 1.2-4.3 3.3-4.6l21.1-3.4c2.2-.4 4.3 1.2 4.6 3.3l.2 1.3c.4 2.2-1.2 4.3-3.3 4.6l-21.1 3.4c-2.1.4-4.2-1.1-4.6-3.3z"/><path transform="rotate(46.248 867.466 225.522)" class="st3" d="M851.6 216.2h31.6v18.7h-31.6z"/><path class="st3" d="M855.6 201.3l36.2.8-.8 36.3z"/><path transform="rotate(67.251 963.34 363.825)" class="st3" d="M935.8 354.4h55v18.7h-55z"/><path class="st3" d="M953.6 319.4l40.9 31.3-6.4 51.1z"/><path transform="rotate(20.437 726.282 138.603)" class="st3" d="M710.5 129.3h31.6V148h-31.6z"/><path class="st3" d="M705.2 122l32.9-15.1 15.1 33z"/><g stroke-width="2.835" stroke-miterlimit="10"><path d="M563.2 513l-1.2-94.9v.6c43.3 0 78.3 41.3 78.3 92.4l.6.6h-78.3" fill="#006837" stroke="#006830"/><path d="M560.6 512.6l.4-94.9v.6c-43.3.4-78 42.1-77.5 93.1l-.6.6 78.3-.7" stroke="#000"/></g><path d="M222.5 304.5l272.2 156.3M379 175.6l139.5 263.9m-366.3 51.7l338.3 1.3" fill="none" stroke="#000" stroke-width="11.339" stroke-miterlimit="10"/><path d="M735.5 173.5L588.2 423.4m303.9-114.5l-270 147.3m344.4 29.3l-329.2 4.6M559 138.2l4.7 279.4" stroke="#006837" fill="none" stroke-width="11.339" stroke-miterlimit="10"/><text transform="matrix(1.5847 0 0 1 135.25 659.969)"><tspan x="0" y="0" class="st3 st8 st9">Re</tspan><tspan x="158.4" y="0" class="st8 st9">-Cycle</tspan></text><path class="st10" d="M441 71c-.1 0-.2.2-.2.1l.2-.1z"/><path class="st10" d="M440.5 71.3c.1-.1.4-.2.6-.4-.3.2-.2.1-.5.3 0 0 .1-.1.2-.1-.1 0 .1 0-.1.1s-.2.1 0 0c0 0-.1.1-.2.1zm-.3.4zm-.2.1zm-.3.2zm.5-.3s-.1 0 0 0zm1-.8c-.1 0 0 0 0 0zm-1.3.9s-.1 0-.1.1l.1-.1zm0 0s.2-.1.3-.2c-.1.1-.1.1-.2.1l-.1.1zm.4-.3c-.1 0 0 0 0 0zm-.4.3c-.1.1-.1.1 0 0-.1.1 0 .1 0 0zm2-.7zm-1.1.8c-.1 0-.1.1-.1.1l.1-.1zm-1.4.3c0 .1 0 .1 0 0zm.3 0c.2-.1.3-.2.5-.3-.1.1-.4.3-.5.3zm1.5-1.3zm-1 1zm-.6.3s.1 0 .1-.1l-.1.1zm.3-.3zm0 .1zm.1 0zm1.8-.9c-.1 0-.1.1-.2.1.1 0 .2-.1.2-.1zm-.7-.1c.1 0 .1-.1.1-.1l-.1.1c0-.1 0 0 0 0zm.7-.3zm-.1.4c0-.1 0-.1 0 0zm.1-.4c-.1.1-.1.1-.2.1h.1l.1-.1zm-.2.6z"/><path class="st10" d="M442.1 70.9s-.3.2-.5.3c0 .1.3-.1.5-.3-.2.1-.5.3-.4.3.1 0 .1 0 .1-.1-.2.2 0 0-.3.2 0 0 .1 0 .1-.1-.2.1-.3.2-.4.3 0 0-.2.1 0 0 0 0 .1 0 .1-.1l-.1.1c.3-.2.1-.1.3-.2-.1.1-.3.2-.3.2.3-.2.1-.1.3-.2l-.1.1.4-.3c.1-.1-.1.1-.1 0-.2.1-.2.2-.4.3-.3.2.7-.5.3-.2-.2.1-.5.4-.4.2l.3-.2s-.5.3-.2.2l.1-.1c.3-.2-.2.1-.2.1l.3-.2-.3.2c.1-.1.2-.1.3-.2-.1.1 0 0 .2-.1l-.2.2s.1-.1.2-.1c.1-.1-.2.1-.3.2 0 0 .1-.1.2-.1-.2.1-.5.3-.2.1h.1c.1-.1-.5.3-.3.2l.2-.2c-.4.2.2-.1-.3.2.2-.2.3-.2.5-.3 0 0-.3.2-.4.2l.3-.2-.3.2.3-.2h-.1s-.1.1-.2.1c-.1.1.2-.1.3-.2l-.2.1c.1-.1.1-.1.2-.1-.3.2.3-.2 0 0-.1 0-.2.1-.2.1.2-.1.2-.1.1-.1l.2-.1h-.1c-.1.1-.4.3-.4.3l.3-.2c-.2.1-.1.1-.3.2 0 0 .3-.2.4-.3l-.1.1.2-.2c-.2.1.3-.2 0 0l.1-.1-.1.1c-.2.2-.2.1-.4.2.1-.1.3-.2.2-.2-.1.1-.2.1-.3.2.2-.1.2-.1.3-.2l-.2.1c-.1.1-.1.1-.2.1 0 0 .1-.1.2-.1-.3.2.6-.4.2-.1l-.2.2s.2-.1.3-.2l-.2.1c.6-.4-.1 0 .3-.3l-.1.1.1-.1c-.1.1-.1.1-.2.1-.2.1.2-.2.3-.3 0 0-.8.5-.4.3l.3-.2-.3.2c.1 0 .1-.1.1-.1l-.2.1.2-.2c.1-.1-.3.2-.1 0 0 0 .1 0 .1-.1-.1.1 0 0-.2.1.1-.1-.1.1 0 0-.3.2.1-.1-.2.2.4-.3.3-.2.1-.1.1-.1.1-.1.3-.2 0 0-.1 0-.3.2.4-.3-.4.2.2-.2-.2.1-.3.2-.4.3.4-.2 0 0 .4-.3-.2.1-.5.3-.4.2.1 0 .2-.1.2-.2l-.2.1s.1 0 .1-.1c0 0 .1 0-.1.1-.2.2-.5.3-.6.4.5-.3.1-.1.7-.5l-.2.2.2-.2c-.1.1-.3.2-.3.2.1-.1.1-.1.2-.1-.2.1-.3.2-.3.2l.1-.1s-.4.3-.3.2c.4-.2.1-.1.4-.3l-.1.1-.2.1s-.2.1-.1.1l.1-.1h-.1l-.1.1c-.2.1-.4.3-.3.2l.2-.1c-.1.1-.2.1-.1.1.1-.1.3-.2.4-.3-.3.2-.1 0-.4.2.1 0 .2-.2.3-.2l-.2.1c.1 0 .1-.1.2-.2 0 0-.4.3-.2.1l.1-.1c.1-.1-.1.1 0 0 .3-.2.1 0 .3-.2-.1 0-.4.2-.3.2-.4.3.2-.1 0 0 0 0 .2-.2.2-.1.1 0-.1.1-.3.2l.1-.1c.1-.1.1 0 .1-.1-.1.1-.1.1-.3.2.6-.4-.4.2.2-.1l.1-.1-.1.1c-.2.1-.1.1-.3.2-.1.1-.2.1-.2.1.1-.1.3-.2.4-.3-.1 0-.1.1-.2.1.3-.2-.4.3-.2.1l.1-.1c-.1 0-.2.1-.2.1.2-.1.1-.1.3-.2 0 0-.4.3-.2.1.1 0 .1 0 .1-.1.3-.2.2-.1.2-.2l.1-.1h-.1c-.6.4-.1.1-.5.3.4-.2.2-.1.5-.3.1 0 .1-.1.2-.1-.2.1.2-.1-.1.1.1-.1 0 0 .2-.1-.1 0-.1.1-.2.2-.3.2.3-.2 0 0-.2.1-.4.3-.6.4.1-.1.3-.2.3-.2.1-.1.1-.1 0 0 .1 0 .1-.1.2-.1 0 0-.3.2-.2.1.1-.1.2-.2.3-.2-.1 0-.2.1-.3.2.1-.1.2-.1.3-.2-.1 0-.1.1-.4.2l-.1.1s.2-.1.2-.2c.2-.1-.1.1-.2.1h-.1c-.5.3.1 0 .1 0l-.3.2.3-.2c-.1.1-.3.2-.3.2-.2.1.1-.1-.1 0h-.1l.1-.1c-.1 0-.2.2-.2.1-.2.1.3-.2 0 0 .1-.1.3-.2.6-.4l-.6.4.3-.2-.1.1c.2-.1.1-.1.3-.2-.2.2.1-.1-.3.2.2-.1.1-.1.3-.2-.4.3.1 0-.1.1s-.1.1-.3.2c.4-.3-.1.1 0 0 .3-.2.1-.1.2-.1-.1.1-.2.1-.3.2h-.1c.3-.2.2-.2.3-.2-.2.1-.3.2-.3.2.1-.1.2-.1.2-.1l-.2.2s.3-.2.1-.1c.2-.1.6-.4.7-.5-.1.1-.3.2-.4.2 0 0 .1-.1 0 0l-.2.1c-.1.1.2-.1.1-.1-.2.1-.1.1-.2.2 0 0 .1 0 0 0l-.2.2c.1-.1.2-.1.2-.2 0 0-.2.1-.3.2l.2-.2s-.1.1-.2.1c.1-.1 0 0 .3-.2.2-.2-.1.1 0 0l-.1.1c.1-.1.1 0 .2-.1l-.2.2c.1 0 .2-.1 0 0l-.1.1c-.1 0-.2.1 0 0-.2.1-.3.2-.2.1l.1-.1-.3.2c-.3.2.6-.4 0 0 .2-.1.1-.1.4-.2l-.4.3c-.2.1.4-.3.3-.2.1-.1.4-.2.5-.3 0 0-.4.3-.5.3h.1s-.1.1-.2.1l.1-.1c-.1.1-.1.1-.3.2.1-.1.2-.1.2-.1l-.1.1c.1 0 .2-.1.2-.1-.1.1.2-.1.2-.1-.1.1-.4.2-.2.2-.1.1-.3.2-.3.2.2-.1-.1.1-.2.1l-.1.1.2-.1-.1.1c.1-.1.3-.2.5-.3-.1.1.1-.1-.2.1.1-.1-.3.2-.3.2h-.1c-.2.2.3-.2.3-.2-.1.1-.3.2-.2.2 0 0 .2-.2.4-.2-.1.1.1-.1.1 0h.1c.1-.1.1-.1.2-.1l-.1.1c.3-.2-.3.2-.1.1-.1.1-.3.2-.3.2.2-.1-.2.1 0 0s.1-.1.3-.2l-.1.1.3-.2-.1.1c.2-.1.1-.1.3-.2-.3.2.2-.1 0 0l-.5.3c-.2.1.3-.2.1-.1l.1-.1c.2-.1 0 0 .1-.1-.2.1-.2.1-.3.2.1-.1 0 0 .3-.2l-.2.1c-.1.1.5-.3.4-.3-.2.1-.3.2-.4.3l.1-.1c-.1.1.2-.1.1 0 .1 0 .2-.2.2-.2l-.1.1c.1-.1.1-.1.3-.2-.5.3 0 0-.4.3.1 0 .1-.1.1-.1s-.1.1-.1 0c-.2.1.5-.3.3-.2-.3.2-.1.1-.2.2-.5.4.1 0-.2.2l.2-.1-.1.1c.3-.2.4-.2.4-.3-.2.1-.1.1-.3.2 0 0 .3-.2.4-.3-.1.1-.2.1-.4.3-.3.2 0 0 0 0l-.1.1s.4-.2.3-.2l.1-.1c.3-.2-.2.1.1 0l.4.6c.1-.1.3-.2.4-.2-.2.2-.4.2-.5.3l.2-.1s-.1.1-.1 0c.3-.2.4-.3.4-.2-.6.4-.2.1-.7.4l-.1.1.5-.3-.3.2c-.1.1-.1.1-.2.1 0 0-.2.1-.3.2.2-.1.3-.2.2-.1l.2-.2c.3-.2-.4.3-.2.1l-.2.1c.1-.1 0 0 .4-.3-.1 0-.2.1-.2.2-.1 0 .4-.3.2-.1l-.1.1.1-.1c-.1 0-.1.1-.1.1s.2-.1.1-.1l-.1.1c-.2.1.3-.2.4-.3-.4.2-.5.3-.5.4h-.1s.3-.2.5-.3c-.4.3-.2.1-.4.3.1 0 .3-.2.3-.2-.1.1.3-.2-.1.1-.3.2-.2.2-.2.2l.4-.3c-.6.4.2-.1-.3.2.1-.1.1-.1.2-.1l-.2.2c-.1 0-.1.1 0 0l-.2.1.7-.5-.4.2s-.3.2 0 0c-.1 0-.2.1-.2.1l.2-.2c-.3.2 0 0 .1-.1l-.2.2c.3-.2.4-.2.5-.3 0 0-.2.1-.1.1-.1.1.2-.1.1-.1l-.1.1s.1 0 .2-.2c.1-.1-.1 0-.3.2.1-.1.3-.2.2-.2-.1.1-.1.1-.2.1-.2.1.3-.2 0 0l-.1.1c-.2.1-.3.2-.5.4.2-.1.5-.3.4-.3h-.2c-.2.1-.1.1-.1.1.2-.2.2-.1.4-.3.1-.1.2-.1.1-.1.2-.1.3-.2.4-.3-.3.2-.5.3-.7.5.1-.1.1-.1.5-.3.1 0-.1.1-.2.1l-.1.1c.1-.1 0 0 .4-.2-.1.1-.3.2-.2.2l-.1.1c-.5.3.8-.5.2-.1 0 0 .1 0 .1-.1-.3.2.3-.2-.2.1-.1.1.1-.1.3-.2l-.3.2.3-.2c.2-.1-.6.4-.2.2l.2-.1-.1.1s.2-.1.1-.1l-.1.1.2-.1c-.1.1-.5.3-.5.4.1 0 .4-.3.5-.3 0 0 .1-.1.2-.1h.1c.4-.3.8-.5 1.1-.7l-.2.2.2-.1c.2-.1 0 0-.1.1.1-.1.2-.1.2-.1l-.4.2c.2-.1.3-.2.4-.3-.2.1-.3.2-.5.3.2-.1.3-.2.2-.1.1-.1.2-.1.2-.1-.1.1-.1 0-.3.2.2-.1-.1 0 .3-.2-.1.1-.3.2-.3.2.5-.5.1-.2.6-.6-.5.3-.2.2-.5.3 0 0 .1-.1.1 0 0 0 .2-.1.2-.2-.3.2-.4.3-.6.4.4-.2.4-.2.8-.5l-.6.4c.2-.1.1-.1.4-.2-.4.3-.1 0-.3.2.2-.1.4-.3.3-.2l.2-.2zm-.7.4zm0 0c-.1.1-.2.1-.2.1.1 0 .1 0 .2-.1zm-1.6 1.1c-.1 0 0 0 0 0l.1-.1-.1.1zm.3-.2zm.1-.6zm1.6-.6h-.1.1zm-.8.1zm0-.1c.1 0 0 0 0 0z"/><path class="st10" d="M441.1 71s-.1 0-.1.1l.1-.1zm.4-.1zm-.6.3l.1-.1c.1 0 .1 0-.1.1zm.9-.5zm-.8.5c.1-.1.1-.1 0 0zm.2-.3zm0 0zm-.1 0c.1 0 .1 0 0 0zm0 0c.1 0 .1 0 0 0zm.1 0s.2-.1.1-.1l-.1.1c.1-.1-.2.1 0 0zm-1.1.7s-.1.1-.2.1c-.2.2.2-.1.2-.1zm-.1.1s-.1.1-.2.1c.1 0 .1 0 .2-.1zm0 .1l-.2.1s.1 0 .2-.1zm1.1-.7l.2-.1-.2.1zm-1.5 1l.1-.1zm.1 0l.3-.2c0 .1-.3.3-.3.2zm.3-.1c-.1.1-.2.1 0 0 0 0 .1 0 0 0zm-.3.4h-.1.1z"/></g></svg>